<?xml version="1.0" standalone="no"?>
<!DOCTYPE svg PUBLIC "-//W3C//DTD SVG 20010904//EN"
 "http://www.w3.org/TR/2001/REC-SVG-20010904/DTD/svg10.dtd">
<svg version="1.0" xmlns="http://www.w3.org/2000/svg"
 width="392.000000pt" height="392.000000pt" viewBox="0 0 392.000000 392.000000"
 preserveAspectRatio="xMidYMid meet">
<metadata>
Created by potrace 1.14, written by Peter Selinger 2001-2017
</metadata>
<g transform="translate(0.000000,392.000000) scale(0.100000,-0.100000)"
fill="#000000" stroke="none">
<path d="M495 3368 c-27 -4 -65 -9 -83 -12 -43 -7 -146 -65 -193 -109 -57 -53
-107 -134 -131 -210 -21 -69 -21 -84 -21 -746 0 -372 3 -696 6 -721 26 -196
206 -374 400 -395 23 -2 266 -4 540 -5 470 -1 498 -2 486 -18 -10 -12 -7 -11
10 3 l23 20 18 -22 c10 -12 21 -19 24 -16 4 4 9 -3 13 -15 3 -12 9 -19 14 -16
5 3 9 0 9 -5 0 -6 3 -10 8 -9 4 2 27 -12 52 -29 24 -18 40 -33 34 -33 -5 0 5
-7 21 -15 17 -9 48 -31 70 -50 22 -19 44 -35 48 -35 5 0 5 -10 2 -22 -7 -21
-6 -22 7 -5 13 17 15 16 45 -15 42 -44 60 -58 72 -58 6 0 16 -9 23 -20 7 -11
19 -20 26 -20 8 0 12 -6 9 -15 -4 -8 -1 -17 5 -21 7 -5 8 -2 3 6 -5 8 -3 11 6
8 8 -3 13 -11 11 -17 -1 -6 1 -10 5 -10 21 3 33 -2 33 -16 0 -8 5 -15 11 -15
5 0 7 6 4 13 -4 6 3 1 14 -12 12 -13 21 -20 21 -17 0 5 53 -35 118 -89 1 -1
-9 -1 -23 0 -14 2 -27 -1 -30 -5 -3 -5 4 -7 16 -5 27 5 88 -20 104 -42 7 -10
11 -24 8 -33 -4 -11 -3 -12 4 -2 5 7 17 10 27 6 12 -5 14 -10 6 -19 -9 -11 -7
-12 10 -8 16 4 23 0 27 -15 3 -11 12 -23 20 -27 14 -5 14 -3 2 11 -13 16 -12
16 8 4 11 -8 19 -19 17 -25 -3 -6 8 -12 22 -13 15 -1 33 -10 41 -20 8 -9 12
-11 8 -4 -5 10 26 18 58 13 4 0 7 4 7 10 0 5 3 8 8 6 4 -2 15 4 25 15 9 10 15
18 12 18 -3 0 -1 9 5 19 6 12 10 143 10 350 1 295 6 363 23 319 4 -10 6 -10 6
0 1 7 14 12 32 12 21 0 28 -4 23 -12 -5 -8 0 -7 11 2 17 14 18 13 12 -4 -6
-16 -5 -17 8 -6 14 11 19 7 16 -12 -1 -8 15 -12 33 -9 5 1 6 -5 3 -13 -4 -10
0 -14 14 -11 13 3 21 -3 25 -22 5 -18 9 -21 15 -11 7 10 11 7 15 -10 5 -18 9
-20 15 -10 7 10 9 8 9 -6 0 -11 3 -16 6 -13 4 4 15 -3 25 -15 11 -11 19 -18
19 -15 0 6 26 -13 55 -40 7 -7 16 -9 19 -5 4 3 4 -2 0 -12 -5 -13 -4 -17 3
-13 6 4 14 0 17 -9 3 -8 12 -14 20 -12 8 2 26 -10 40 -25 14 -15 26 -25 26
-22 0 3 6 1 13 -5 6 -6 23 -19 36 -30 21 -17 22 -22 10 -37 -11 -14 -8 -13 10
2 l24 20 -7 -20 c-12 -30 -15 -66 -6 -60 5 3 7 11 5 18 -3 7 -1 18 4 26 8 12
13 12 35 -3 14 -9 26 -23 26 -30 0 -7 8 -20 18 -27 14 -11 15 -11 5 1 -27 30
-11 31 17 1 17 -17 35 -31 40 -31 6 0 10 -3 10 -8 0 -4 10 -12 23 -17 12 -6
21 -17 19 -24 -1 -7 2 -10 9 -5 7 4 17 1 23 -7 6 -8 29 -27 51 -44 53 -39 74
-56 97 -77 10 -10 18 -16 18 -12 0 3 11 -6 24 -20 13 -15 28 -26 35 -26 6 0
11 -4 11 -10 0 -5 7 -10 16 -10 9 0 23 -8 31 -17 8 -10 11 -12 7 -4 -5 11 0
13 25 9 17 -2 31 -2 31 2 0 4 11 12 24 20 14 7 30 25 36 41 14 32 19 1578 6
1635 -15 69 -94 105 -156 71 -19 -11 -38 -24 -42 -31 -4 -6 -8 -7 -8 -1 0 5
-7 -1 -16 -13 -9 -13 -22 -21 -30 -18 -7 3 -16 0 -20 -6 -5 -7 -2 -8 7 -3 8 4
5 -1 -6 -12 -11 -11 -22 -19 -24 -17 -2 2 -12 -6 -22 -18 -19 -21 -19 -10 -20
418 0 241 -2 454 -4 472 -5 51 -44 172 -55 172 -6 0 -10 6 -10 14 0 16 -119
146 -134 146 -5 0 -17 6 -25 14 -25 23 -117 55 -174 62 -71 9 -2569 11 -2632
2z m2637 -330 c21 -12 48 -38 60 -57 20 -36 21 -43 21 -604 l0 -568 -37 -31
c-31 -25 -40 -28 -47 -17 -7 10 -8 7 -7 -11 2 -14 -2 -25 -9 -25 -7 0 -28 -15
-48 -33 -19 -18 -39 -31 -45 -27 -5 3 -10 1 -10 -5 0 -6 -7 -18 -15 -26 -8 -9
-15 -13 -15 -9 0 3 -15 -8 -33 -24 -17 -17 -38 -31 -45 -31 -7 0 -10 -4 -7
-10 3 -5 2 -10 -4 -10 -5 0 -24 -12 -41 -26 -31 -26 -110 -50 -110 -33 0 5
-10 5 -22 0 -11 -4 -32 -6 -44 -3 l-23 4 -1 311 c0 277 -2 314 -18 341 -30 51
-74 68 -132 49 -8 -2 -15 -3 -16 -1 0 2 -8 -5 -18 -15 -10 -9 -22 -15 -27 -12
-5 4 -9 0 -9 -7 -1 -7 -7 1 -15 17 -31 66 -84 99 -152 94 -85 -6 -143 -65
-146 -147 -2 -56 15 -95 58 -134 16 -15 25 -28 19 -28 -5 0 -20 -9 -32 -21
-13 -11 -28 -17 -35 -13 -6 4 -9 4 -5 -1 10 -11 -44 -56 -59 -51 -7 3 -10 -1
-6 -10 3 -7 0 -14 -5 -14 -6 0 -17 -6 -24 -13 -7 -7 -31 -26 -53 -42 -22 -17
-49 -38 -59 -47 -10 -10 -22 -16 -25 -14 -3 2 -12 -2 -19 -10 -7 -8 -9 -14 -5
-14 4 0 0 -5 -9 -11 -10 -5 -20 -9 -24 -9 -3 1 -11 -5 -17 -14 -26 -33 -221
-177 -234 -172 -8 3 -11 1 -8 -4 7 -12 39 -11 -581 -12 -499 -1 -502 -1 -537
21 -19 12 -44 39 -54 60 -19 38 -20 67 -18 708 1 452 5 676 12 693 13 30 37
53 78 74 27 14 168 16 1324 16 l1294 0 39 -22z m-707 -1219 c-1 -17 -8 -35
-16 -40 -11 -7 -10 -9 6 -9 17 0 17 -2 5 -10 -8 -5 -10 -10 -4 -10 7 0 10 -25
8 -67 -3 -88 -2 -85 -16 -78 -7 4 -5 0 6 -9 18 -14 15 -36 -5 -36 -6 0 -8 4
-4 9 3 5 2 12 -3 15 -4 2 -8 -6 -8 -18 0 -18 5 -22 21 -19 16 4 17 3 5 -6 -10
-7 -11 -11 -2 -11 6 0 12 -4 12 -10 0 -5 -8 -7 -17 -3 -15 5 -14 3 2 -10 19
-16 18 -16 -25 -18 -180 -4 -380 -3 -380 3 0 4 -11 3 -25 -2 -15 -6 -26 -6
-30 0 -4 6 0 10 9 10 8 0 16 3 18 8 6 14 86 72 99 72 7 0 9 3 6 7 -4 3 10 18
31 32 44 29 55 38 87 69 14 13 25 20 25 17 0 -3 8 3 18 13 40 37 63 52 72 47
6 -3 7 1 4 10 -5 11 -2 14 12 8 13 -5 15 -3 9 7 -6 10 -4 12 8 7 11 -4 17 -1
17 8 0 12 10 20 56 45 0 0 0 -14 -1 -31z m1222 -49 c1 -53 -3 -78 -10 -73 -6
4 -7 1 -1 -8 13 -20 13 -73 0 -81 -7 -5 -6 -8 4 -9 10 0 8 -3 -5 -9 -17 -7
-17 -9 -2 -9 20 -1 23 -31 5 -50 -10 -11 -10 -13 0 -7 7 5 12 1 12 -9 0 -9 -4
-13 -10 -10 -5 3 -10 1 -10 -4 0 -6 5 -11 11 -11 8 0 7 -6 -2 -17 -8 -9 -9
-14 -4 -11 6 4 12 -2 12 -13 1 -11 -5 -19 -15 -20 -15 -1 -15 -2 1 -6 20 -5
23 -33 5 -52 -10 -11 -10 -13 0 -7 7 5 12 1 12 -9 0 -10 -5 -13 -12 -9 -10 6
-10 4 -2 -7 15 -20 18 -82 3 -73 -8 5 -9 3 -3 -7 13 -22 14 -43 1 -51 -9 -6
-8 -8 3 -9 10 0 8 -3 -5 -9 -17 -7 -17 -9 -2 -9 20 -1 23 -31 5 -50 -10 -11
-10 -13 0 -7 7 5 12 1 12 -9 0 -10 -5 -13 -12 -9 -10 6 -10 4 -2 -7 16 -21 18
-82 2 -73 -10 6 -10 4 -2 -7 14 -19 18 -83 4 -74 -5 3 -10 1 -10 -4 0 -6 5
-11 10 -11 6 0 10 -8 10 -17 0 -15 -2 -16 -10 -3 -6 9 -10 10 -10 3 0 -6 4
-14 8 -17 9 -6 13 -106 5 -119 -3 -4 -11 -3 -19 4 -7 6 -11 15 -8 20 3 5 2 9
-3 8 -20 -3 -32 3 -62 31 -17 17 -31 27 -31 23 -1 -5 -10 3 -20 16 -11 13 -20
20 -20 17 0 -4 -35 22 -79 56 -43 35 -124 98 -180 141 -55 43 -101 80 -101 81
0 1 11 3 24 4 13 1 37 7 52 13 16 7 33 11 38 10 5 -1 16 4 25 12 9 7 29 19 44
27 64 32 208 204 192 230 -3 5 -1 11 4 14 16 10 28 89 32 208 3 84 -2 76 79
133 19 13 35 24 35 25 1 0 1 -36 2 -80z m-1226 -615 c1 -8 1 -24 1 -35 0 -36
-2 -41 -14 -35 -7 4 -6 1 2 -7 11 -9 15 -32 14 -84 -1 -39 -4 -76 -8 -82 -3
-6 -2 -13 3 -16 5 -4 8 -14 6 -24 -2 -9 -4 -21 -4 -26 -1 -5 -7 -3 -14 3 -10
8 -14 7 -14 -4 0 -8 3 -12 7 -10 3 2 12 0 19 -4 10 -7 10 -13 2 -30 -9 -16 -9
-21 0 -21 7 0 10 -3 7 -6 -10 -9 -49 20 -44 33 3 7 -1 10 -10 6 -8 -3 -22 3
-32 13 -9 11 -26 24 -37 31 -11 6 -19 16 -17 22 1 6 -1 10 -5 10 -20 -3 -33 3
-61 29 -16 15 -43 36 -58 47 -27 20 -174 134 -204 158 -8 7 -26 20 -40 30 -23
16 -14 17 238 17 226 0 262 -2 263 -15z"/>
<path d="M1150 2740 c-55 -7 -79 -22 -111 -68 -21 -31 -24 -49 -27 -139 l-4
-103 -91 0 c-146 0 -207 -42 -215 -150 -3 -45 0 -61 20 -89 38 -57 81 -76 178
-78 47 -1 91 -2 98 -2 9 -1 12 -26 12 -90 0 -102 13 -143 62 -186 29 -26 41
-30 93 -30 47 0 67 5 93 23 52 37 66 75 68 180 0 51 4 95 7 99 4 3 48 7 99 7
78 1 99 5 130 24 100 62 103 193 5 266 -24 17 -46 22 -133 24 -69 3 -104 8
-105 15 0 7 -2 49 -2 94 -1 45 -5 85 -9 89 -5 4 -8 15 -8 25 0 19 -71 85 -98
91 -9 2 -37 1 -62 -2z"/>
<path d="M2695 2579 c-131 -41 -146 -227 -23 -288 73 -36 151 -16 202 53 31
40 29 130 -2 174 -40 55 -114 81 -177 61z"/>
<path d="M1916 1802 c-3 -5 1 -9 9 -9 8 0 12 4 9 9 -3 4 -7 8 -9 8 -2 0 -6 -4
-9 -8z"/>
<path d="M1654 1596 c1 -8 5 -18 8 -22 4 -3 5 1 4 10 -1 8 -5 18 -8 22 -4 3
-5 -1 -4 -10z"/>
<path d="M2405 1820 c-4 -6 -11 -7 -17 -4 -7 4 -8 2 -4 -5 6 -9 11 -9 22 0 14
11 18 19 10 19 -3 0 -8 -5 -11 -10z"/>
<path d="M2391 1750 c14 -31 19 -36 19 -24 0 6 -7 19 -16 30 -14 18 -14 18 -3
-6z"/>
<path d="M2375 1700 c-3 -6 1 -7 9 -4 18 7 21 14 7 14 -6 0 -13 -4 -16 -10z"/>
<path d="M2395 1682 c3 -3 -1 -12 -8 -20 -11 -13 -9 -14 11 -1 26 16 28 26 7
26 -8 0 -13 -3 -10 -5z"/>
<path d="M2346 1618 c3 -5 10 -6 15 -3 13 9 11 12 -6 12 -8 0 -12 -4 -9 -9z"/>
<path d="M2350 1559 c0 -5 5 -7 10 -4 6 3 10 8 10 11 0 2 -4 4 -10 4 -5 0 -10
-5 -10 -11z"/>
<path d="M3622 1811 c-11 -7 -11 -9 0 -14 9 -3 15 1 15 9 0 8 -1 14 -1 14 -1
0 -7 -4 -14 -9z"/>
<path d="M3608 1783 c6 -2 9 -10 6 -15 -4 -7 -2 -8 5 -4 13 9 5 26 -12 25 -9
0 -8 -2 1 -6z"/>
<path d="M3610 1720 c0 -5 5 -10 10 -10 6 0 10 5 10 10 0 6 -4 10 -10 10 -5 0
-10 -4 -10 -10z"/>
<path d="M3604 1679 c-4 -7 -3 -9 4 -5 5 3 13 0 15 -6 4 -9 6 -10 6 -1 1 17
-16 25 -25 12z"/>
<path d="M3625 1559 c-4 -6 -5 -12 -2 -15 2 -3 7 2 10 11 7 17 1 20 -8 4z"/>
<path d="M3625 1399 c-4 -6 -5 -12 -2 -15 2 -3 7 2 10 11 7 17 1 20 -8 4z"/>
<path d="M3614 1321 c0 -11 5 -17 13 -14 10 4 11 9 2 19 -15 18 -15 18 -15 -5z"/>
<path d="M3625 1159 c-4 -6 -5 -12 -2 -15 2 -3 7 2 10 11 7 17 1 20 -8 4z"/>
<path d="M3614 1081 c0 -11 5 -17 13 -14 10 4 11 9 2 19 -15 18 -15 18 -15 -5z"/>
<path d="M3566 1058 c3 -5 10 -6 15 -3 13 9 11 12 -6 12 -8 0 -12 -4 -9 -9z"/>
<path d="M3566 1018 c3 -5 10 -6 15 -3 13 9 11 12 -6 12 -8 0 -12 -4 -9 -9z"/>
<path d="M3614 1001 c0 -11 5 -17 13 -14 10 4 11 9 2 19 -15 18 -15 18 -15 -5z"/>
<path d="M3595 839 c-3 -4 2 -6 10 -5 21 3 28 13 10 13 -9 0 -18 -4 -20 -8z"/>
<path d="M2386 1118 c3 -5 10 -6 15 -3 13 9 11 12 -6 12 -8 0 -12 -4 -9 -9z"/>
<path d="M2350 1081 c0 -6 4 -13 10 -16 6 -3 7 1 4 9 -7 18 -14 21 -14 7z"/>
<path d="M2393 1055 c0 -8 4 -12 9 -9 5 3 6 10 3 15 -9 13 -12 11 -12 -6z"/>
<path d="M2393 1023 c4 -3 1 -13 -6 -22 -11 -14 -10 -14 6 -2 20 15 22 31 5
31 -6 0 -8 -3 -5 -7z"/>
<path d="M2369 963 c-13 -16 -12 -17 4 -4 9 7 17 15 17 17 0 8 -8 3 -21 -13z"/>
<path d="M2393 945 c0 -8 4 -15 9 -15 4 0 8 4 8 9 0 6 -4 12 -8 15 -5 3 -9 -1
-9 -9z"/>
<path d="M2390 879 c0 -5 5 -7 10 -4 6 3 10 8 10 11 0 2 -4 4 -10 4 -5 0 -10
-5 -10 -11z"/>
<path d="M2716 1127 c3 -10 9 -15 12 -12 3 3 0 11 -7 18 -10 9 -11 8 -5 -6z"/>
<path d="M2746 1118 c3 -4 9 -8 15 -8 5 0 9 4 9 8 0 5 -7 9 -15 9 -8 0 -12 -4
-9 -9z"/>
<path d="M1550 1085 c0 -7 30 -13 34 -7 3 4 -4 9 -15 9 -10 1 -19 0 -19 -2z"/>
<path d="M2815 1080 c3 -5 8 -10 11 -10 2 0 4 5 4 10 0 6 -5 10 -11 10 -5 0
-7 -4 -4 -10z"/>
<path d="M1599 1078 c-5 -18 -6 -38 -1 -34 7 8 12 36 6 36 -2 0 -4 -1 -5 -2z"/>
<path d="M1627 1067 c-3 -8 3 -14 16 -15 12 0 17 2 12 6 -6 4 -13 11 -16 15
-4 4 -9 2 -12 -6z"/>
<path d="M2793 1065 c0 -8 4 -12 9 -9 5 3 6 10 3 15 -9 13 -12 11 -12 -6z"/>
<path d="M2835 1060 c-3 -5 -1 -10 4 -10 6 0 11 5 11 10 0 6 -2 10 -4 10 -3 0
-8 -4 -11 -10z"/>
<path d="M1660 1040 c-12 -7 -10 -9 7 -7 12 0 19 5 17 9 -6 10 -6 10 -24 -2z"/>
<path d="M2894 1022 c3 -6 -2 -15 -11 -21 -10 -6 -13 -11 -7 -11 20 0 37 27
23 36 -7 4 -9 3 -5 -4z"/>
<path d="M2916 993 c-6 -14 -5 -15 5 -6 7 7 10 15 7 18 -3 3 -9 -2 -12 -12z"/>
<path d="M1750 966 c0 -2 9 -6 20 -9 11 -3 18 -1 14 4 -5 9 -34 13 -34 5z"/>
<path d="M2926 958 c3 -5 10 -6 15 -3 13 9 11 12 -6 12 -8 0 -12 -4 -9 -9z"/>
<path d="M1735 940 c3 -5 8 -10 11 -10 2 0 4 5 4 10 0 6 -5 10 -11 10 -5 0 -7
-4 -4 -10z"/>
<path d="M1790 920 c0 -5 5 -10 11 -10 5 0 7 5 4 10 -3 6 -8 10 -11 10 -2 0
-4 -4 -4 -10z"/>
<path d="M2976 918 c3 -5 10 -6 15 -3 13 9 11 12 -6 12 -8 0 -12 -4 -9 -9z"/>
<path d="M3035 900 c2 -27 10 -33 12 -10 1 11 -2 22 -6 24 -4 3 -7 -4 -6 -14z"/>
<path d="M3080 875 c-11 -13 -10 -14 4 -9 9 3 16 10 16 15 0 13 -6 11 -20 -6z"/>
<path d="M1827 839 c7 -7 15 -10 18 -7 3 3 -2 9 -12 12 -14 6 -15 5 -6 -5z"/>
<path d="M1870 841 c0 -6 4 -13 10 -16 6 -3 7 1 4 9 -7 18 -14 21 -14 7z"/>
<path d="M3104 839 c-5 -8 -3 -9 6 -4 7 4 16 2 22 -6 8 -12 9 -12 6 0 -6 20
-24 25 -34 10z"/>
<path d="M3157 829 c7 -7 15 -10 18 -7 3 3 -2 9 -12 12 -14 6 -15 5 -6 -5z"/>
<path d="M1920 826 c0 -2 7 -7 16 -10 8 -3 12 -2 9 4 -6 10 -25 14 -25 6z"/>
<path d="M1980 786 c0 -2 8 -10 18 -17 15 -13 16 -12 3 4 -13 16 -21 21 -21
13z"/>
<path d="M3253 756 c0 -8 6 -12 14 -9 7 3 10 9 7 14 -8 14 -21 11 -21 -5z"/>
<path d="M2033 725 c0 -8 4 -15 9 -15 4 0 8 4 8 9 0 6 -4 12 -8 15 -5 3 -9 -1
-9 -9z"/>
<path d="M3270 716 c0 -2 8 -10 18 -17 15 -13 16 -12 3 4 -13 16 -21 21 -21
13z"/>
<path d="M2090 696 c0 -2 8 -10 18 -17 15 -13 16 -12 3 4 -13 16 -21 21 -21
13z"/>
<path d="M2137 676 c-4 -11 -1 -13 10 -9 10 4 14 2 10 -4 -3 -5 0 -10 8 -10
13 0 12 4 -2 19 -19 22 -19 22 -26 4z"/>
<path d="M3316 662 c-3 -4 4 -9 15 -9 23 -2 25 3 4 10 -8 4 -16 3 -19 -1z"/>
<path d="M3402 640 c0 -14 2 -19 5 -12 2 6 2 18 0 25 -3 6 -5 1 -5 -13z"/>
<path d="M2155 631 c-3 -5 -2 -12 3 -15 5 -3 9 1 9 9 0 17 -3 19 -12 6z"/>
<path d="M2200 631 c0 -7 -5 -9 -12 -5 -7 5 -8 3 -3 -5 5 -9 10 -10 18 -2 6 6
8 14 4 18 -4 3 -7 1 -7 -6z"/>
<path d="M3375 631 c-3 -5 -2 -12 3 -15 5 -3 9 1 9 9 0 17 -3 19 -12 6z"/>
<path d="M3432 621 c-11 -7 -11 -9 0 -14 9 -3 15 1 15 9 0 8 -1 14 -1 14 -1 0
-7 -4 -14 -9z"/>
<path d="M3473 585 c0 -8 4 -15 9 -15 4 0 8 4 8 9 0 6 -4 12 -8 15 -5 3 -9 -1
-9 -9z"/>
<path d="M2190 561 c0 -6 4 -13 10 -16 6 -3 7 1 4 9 -7 18 -14 21 -14 7z"/>
<path d="M2275 560 c-3 -5 -2 -10 4 -10 5 0 13 5 16 10 3 6 2 10 -4 10 -5 0
-13 -4 -16 -10z"/>
<path d="M2296 541 c-3 -5 2 -15 12 -22 15 -12 16 -12 5 2 -7 9 -10 19 -6 22
3 4 4 7 0 7 -3 0 -8 -4 -11 -9z"/>
<path d="M3506 541 c-4 -5 3 -7 14 -4 23 6 26 13 6 13 -8 0 -17 -4 -20 -9z"/>
<path d="M3520 525 c0 -2 6 -8 13 -14 10 -8 14 -7 14 2 0 8 -6 14 -14 14 -7 0
-13 -1 -13 -2z"/>
<path d="M3615 460 c-3 -5 -1 -10 4 -10 6 0 11 5 11 10 0 6 -2 10 -4 10 -3 0
-8 -4 -11 -10z"/>
<path d="M2390 441 c0 -6 4 -13 10 -16 6 -3 7 1 4 9 -7 18 -14 21 -14 7z"/>
<path d="M2449 403 c-13 -16 -12 -17 4 -4 16 13 21 21 13 21 -2 0 -10 -8 -17
-17z"/>
</g>
</svg>
